PathFileType	4	(X/Y/Z)	C:/Users/opensim2020/Desktop/walking_exp_matlab/subject06_walking18_straight_04.trc	
DataRate	CameraRate	NumFrames	NumMarkers	Units	OrigDataRate	OrigDataStartFrame	OrigNumFrames	
100.00	100.00	5	47	mm	100.00	4521	409	
Frame#	Time	LFHD			RFHD			LBHD			RBHD			C7			T10			CLAV			STRN			RBAK			LSHO			LUPA			LELB			LFRM			LWRA			LWRB			LFIN			RSHO			RUPA			RELB			RFRM			RWRA			RWRB			RFIN			LASI			RASI			LPSI			RPSI			LTHI			LKNE			LTIB			LANK			LHEE			LTOE			RTHI			RKNE			RTIB			RANK			RHEE			RTOE			*39			*40			*41			*42			*43			*44			*45			*46			
		X1	Y1	Z1	X2	Y2	Z2	X3	Y3	Z3	X4	Y4	Z4	X5	Y5	Z5	X6	Y6	Z6	X7	Y7	Z7	X8	Y8	Z8	X9	Y9	Z9	X10	Y10	Z10	X11	Y11	Z11	X12	Y12	Z12	X13	Y13	Z13	X14	Y14	Z14	X15	Y15	Z15	X16	Y16	Z16	X17	Y17	Z17	X18	Y18	Z18	X19	Y19	Z19	X20	Y20	Z20	X21	Y21	Z21	X22	Y22	Z22	X23	Y23	Z23	X24	Y24	Z24	X25	Y25	Z25	X26	Y26	Z26	X27	Y27	Z27	X28	Y28	Z28	X29	Y29	Z29	X30	Y30	Z30	X31	Y31	Z31	X32	Y32	Z32	X33	Y33	Z33	X34	Y34	Z34	X35	Y35	Z35	X36	Y36	Z36	X37	Y37	Z37	X38	Y38	Z38	X39	Y39	Z39	X40	Y40	Z40	X41	Y41	Z41	X42	Y42	Z42	X43	Y43	Z43	X44	Y44	Z44	X45	Y45	Z45	X46	Y46	Z46	X47	Y47	Z47	

1	0.000	-950.46832	1070.02551	1667.38354	-1082.06738	1061.34644	1659.35706	-959.66199	1201.53381	1608.80432	-1088.61377	1190.80835	1605.80334	-1013.44647	1194.34180	1455.25452	-1025.57556	1227.86938	1126.65405	-1014.81787	1085.09692	1377.36292	-1010.99670	1047.88550	1200.48877	-1095.32874	1266.89575	1285.18250	-852.34235	1137.94543	1407.63708	-780.84937	1147.39124	1204.63818	-768.14777	1154.85547	1092.28186	-742.61304	1122.71118	946.01746	-778.70099	1050.32043	836.69177	-745.18011	1113.42664	827.11755	-740.81189	1064.43799	750.03467	-1174.94067	1129.54883	1411.25989	-1268.14197	1167.68237	1215.65015	-1283.26563	1157.40283	1094.66809	-1298.99402	1125.62659	979.31879	-1263.79456	1043.23010	853.95001	-1303.66150	1096.76355	844.67157	-1304.24109	1047.78467	776.31866	-911.78912	1053.42236	967.79779	-1132.33911	1052.45190	967.49634	-939.86749	1211.41016	994.46069	-1108.41040	1203.52454	997.70508	-843.52222	1078.74768	654.80341	-868.85492	1038.87341	496.28525	-873.30078	1097.39124	250.01617	-907.96222	1111.07617	76.91557	-959.71448	1143.93018	61.21954	-888.46509	972.86603	42.10612	-1173.50647	1128.35986	632.83319	-1147.59387	1137.26587	507.43777	-1132.68457	1208.90210	250.62271	-1080.95386	1241.79700	67.31828	-1036.17603	1282.79663	44.23602	-1081.56042	1089.19470	32.09665	-1014.98962	1167.55688	1703.71619																					 
2	0.010	-950.17822	1065.23889	1666.97009	-1081.81921	1056.28333	1659.02612	-959.77893	1196.80212	1608.62830	-1088.95532	1185.93188	1605.70764	-1013.69159	1189.70740	1455.01147	-1026.01538	1223.37683	1126.39172	-1014.94568	1080.46484	1377.09399	-1011.19611	1043.42493	1200.22156	-1095.86731	1262.20288	1285.04846	-852.53802	1133.62988	1407.27637	-781.07007	1144.32446	1204.34351	-768.40326	1152.84277	1092.12976	-742.48511	1122.28589	945.55804	-777.99274	1050.87549	835.38257	-744.88995	1114.24207	826.61206	-740.13977	1066.24646	748.98108	-1175.09607	1124.66016	1411.13879	-1268.55823	1162.59973	1215.59155	-1283.72668	1152.22900	1094.63562	-1299.47754	1120.36584	979.32147	-1264.19568	1037.84888	853.90588	-1304.39563	1091.44690	844.88165	-1304.74829	1042.32251	776.39429	-912.28552	1048.74536	967.67377	-1132.81580	1048.33582	967.05487	-940.24188	1206.83862	994.21466	-1108.79529	1199.19287	997.34033	-843.35980	1073.84485	654.88562	-868.59320	1033.22986	496.44882	-872.78760	1083.35352	248.31970	-907.20813	1091.23657	74.92560	-960.90149	1121.70215	56.48419	-889.19019	951.63251	42.80317	-1173.58997	1125.15601	632.45599	-1147.75745	1134.55127	507.09128	-1132.97961	1208.07703	250.64871	-1080.96948	1241.58533	67.48275	-1036.20166	1282.67395	44.55027	-1081.69641	1089.15259	32.06134	-1014.92877	1162.53052	1703.50256																					 
3	0.020	-949.92896	1060.48279	1666.48242	-1081.51685	1051.14795	1658.68762	-959.88373	1192.06775	1608.35828	-1088.99487	1180.90662	1605.55872	-1013.88751	1185.04102	1454.70178	-1026.40649	1218.93335	1126.10010	-1014.99194	1075.89001	1376.72864	-1011.42352	1038.86804	1199.87305	-1096.33472	1257.54651	1284.89624	-852.64856	1129.26746	1406.90613	-781.22668	1141.34448	1204.05774	-768.61761	1150.73242	1091.90637	-742.57233	1121.68958	945.00421	-777.38055	1051.28479	834.18970	-744.59918	1114.88647	826.10028	-739.53558	1067.74524	747.88452	-1175.20959	1119.79675	1410.96753	-1268.90125	1157.55176	1215.47913	-1284.13696	1147.07642	1094.51270	-1299.90027	1115.08264	979.25110	-1264.62036	1032.50610	853.97559	-1304.85522	1086.06250	844.83850	-1305.29346	1036.89526	776.49292	-912.70483	1044.03784	967.56317	-1133.15479	1043.94849	966.56940	-940.53601	1202.21704	993.89740	-1109.09631	1194.87744	996.95087	-843.13660	1069.40784	654.73297	-868.41162	1027.66943	496.57330	-872.31628	1069.62610	246.89116	-907.02374	1071.16870	73.22793	-958.09601	1104.12732	56.78827	-889.89825	930.89362	43.71008	-1173.61230	1121.84106	632.08588	-1147.96765	1131.75500	506.71878	-1132.74695	1206.14832	250.63492	-1080.97412	1241.34229	67.64855	-1036.16016	1282.58215	44.95277	-1081.62427	1088.99646	31.88578	-1014.83881	1157.53564	1703.26807																					 
4	0.030	-949.72357	1055.33777	1665.79504	-1081.18127	1046.12000	1658.31677	-959.89734	1187.34106	1608.05090	-1088.77466	1175.73279	1605.36865	-1014.04895	1180.40015	1454.39917	-1026.68481	1214.46777	1125.75513	-1015.05396	1071.33057	1376.31335	-1011.61975	1034.37988	1199.54163	-1096.68079	1252.89270	1284.66602	-852.73444	1124.86987	1406.44165	-781.30444	1138.29102	1203.79077	-768.76782	1148.64160	1091.69995	-742.14197	1121.20837	944.70416	-776.61420	1051.69666	833.10944	-744.24445	1115.37158	825.59302	-738.94867	1068.99390	746.90723	-1175.27344	1114.96448	1410.72253	-1269.17627	1152.49426	1215.29749	-1284.51624	1141.99316	1094.39905	-1300.29407	1109.85645	979.14374	-1264.92700	1027.29236	853.97504	-1305.24109	1080.60962	844.73059	-1305.31543	1031.25745	776.34784	-913.12213	1039.38147	967.29083	-1133.61829	1039.76660	966.16382	-940.73474	1197.58716	993.55518	-1109.30762	1190.58350	996.54797	-843.00507	1064.74121	654.83905	-868.21759	1022.08759	496.64282	-871.91406	1056.15039	245.75540	-906.35901	1051.83899	72.14635	-957.16479	1084.25500	54.99731	-890.49963	910.61035	44.82932	-1173.64001	1118.52954	631.71777	-1148.11230	1128.96045	506.41699	-1132.76965	1205.11108	250.69119	-1080.96399	1241.11780	67.87070	-1036.14478	1282.40234	45.23783	-1081.62744	1088.92163	31.76936	-1014.69824	1152.54846	1702.96399																					 
5	0.040	-949.25159	1050.82275	1665.45435	-1080.81653	1041.08276	1657.93445	-959.87195	1182.58960	1607.70117	-1088.97339	1170.92261	1605.18677	-1014.11475	1175.70764	1454.06604	-1026.91052	1210.00757	1125.42224	-1014.99310	1066.60010	1375.94202	-1011.73792	1029.90417	1199.17041	-1096.95801	1248.22705	1284.41772	-852.74274	1120.44934	1405.98755	-781.32257	1135.23560	1203.43359	-768.83105	1146.42029	1091.45129	-742.01929	1120.37939	944.29364	-776.08282	1051.67761	832.04822	-743.86377	1115.75037	825.09583	-738.44019	1070.01538	745.97089	-1175.28894	1110.13977	1410.46924	-1269.36841	1147.46667	1215.06934	-1284.82959	1136.93738	1094.21045	-1300.62537	1104.67725	978.98560	-1265.16638	1021.98346	853.88263	-1305.60730	1075.32202	844.63098	-1305.97888	1026.07849	776.37744	-913.58325	1034.64551	967.13116	-1133.94946	1035.45642	965.83990	-940.84552	1192.91345	993.14667	-1109.43994	1186.34534	996.13928	-842.87244	1060.53918	654.61218	-867.90875	1016.38196	496.79529	-871.44324	1042.99719	244.93813	-905.70258	1033.22632	71.41588	-956.34357	1065.96851	54.47629	-891.00751	890.98071	46.34312	-1173.68103	1115.20227	631.37714	-1148.17236	1125.99524	506.02936	-1132.98889	1203.98547	250.87231	-1080.94006	1240.84180	68.08052	-1036.12671	1282.29102	45.63060	-1081.63684	1088.90100	31.71749	-1014.46210	1147.56079	1702.61194																					 
